<?xml version="1.0" encoding="UTF-8"?>
<svg version="1.1" xmlns="http://www.w3.org/2000/svg" width="512" height="512">
<path d="M0 0 C17.49 0 34.98 0 53 0 C56.08583419 7.40600207 59.09247379 14.74621691 61.828125 22.2734375 C62.17414261 23.21842606 62.52016022 24.16341461 62.87666321 25.13703918 C63.61783056 27.16201373 64.3578187 29.18742023 65.09671021 31.21322632 C66.68453839 35.56629819 68.27835882 39.91716867 69.87184143 44.26817322 C70.69718714 46.52186408 71.52224823 48.7756592 72.34703064 51.02955627 C76.39564141 62.09080276 80.4755644 73.14036754 84.5625 84.1875 C85.26597054 86.08967359 85.96942101 87.99185459 86.67285156 89.89404297 C88.0787395 93.69554901 89.48486037 97.4969688 90.89111328 101.29833984 C94.07559691 109.90720142 97.25686752 118.51725046 100.43841553 127.12719727 C101.84734654 130.93997051 103.2564373 134.7526847 104.66552734 138.56539917 C107.56624208 146.41416046 110.46675289 154.26299705 113.36689758 162.11196899 C114.11750454 164.14337394 114.86814521 166.17476643 115.61882019 168.20614624 C117.43971952 173.133643 119.26023962 178.06127901 121.07983398 182.98925781 C124.13782169 191.26939572 127.19995308 199.54782226 130.2890625 207.81640625 C130.77096292 209.10846184 131.25281724 210.40053462 131.73461914 211.69262695 C132.59037363 213.98518049 133.44873585 216.27676316 134.31030273 218.56713867 C134.85473022 220.0266394 134.85473022 220.0266394 135.41015625 221.515625 C135.72090088 222.34352539 136.03164551 223.17142578 136.35180664 224.02441406 C137 226 137 226 137 228 C117.2 228 97.4 228 77 228 C75.411875 223.2975 73.82375 218.595 72.1875 213.75 C71.6927417 212.29303711 71.1979834 210.83607422 70.68823242 209.33496094 C70.28967041 208.14676758 69.8911084 206.95857422 69.48046875 205.734375 C69.07723389 204.54038086 68.67399902 203.34638672 68.25854492 202.11621094 C66.63388576 196.80258272 65.34763763 191.39055053 64 186 C39.25 186 14.5 186 -11 186 C-11.66 188.97 -12.32 191.94 -13 195 C-13.76668532 197.71249669 -14.55199892 200.40556642 -15.3828125 203.09765625 C-15.67466431 204.05714172 -15.67466431 204.05714172 -15.97241211 205.03601074 C-16.68624774 207.37930221 -17.40594643 209.72080442 -18.125 212.0625 C-19.73375 217.321875 -21.3425 222.58125 -23 228 C-42.8 228 -62.6 228 -83 228 C-81.87511064 221.25066384 -81.87511064 221.25066384 -80.62744141 217.92138672 C-80.34771988 217.16661545 -80.06799835 216.41184418 -79.77980042 215.63420105 C-79.4734819 214.82421158 -79.16716339 214.01422211 -78.8515625 213.1796875 C-78.36567909 211.87436821 -78.36567909 211.87436821 -77.86997986 210.54267883 C-77.16467067 208.64944439 -76.45694803 206.75710771 -75.74710083 204.86557007 C-73.80094763 199.67877461 -71.87289799 194.48523746 -69.94140625 189.29296875 C-69.53593063 188.2046022 -69.13045502 187.11623566 -68.71269226 185.99488831 C-64.2761185 174.07848112 -59.91781824 162.13378832 -55.5625 150.1875 C-53.96143592 145.79929718 -52.35973921 141.41132548 -50.7578125 137.0234375 C-50.36203506 135.93927048 -49.96625763 134.85510345 -49.55848694 133.73808289 C-43.52795799 117.22391874 -37.45748402 100.72440667 -31.3901062 84.22375488 C-28.65259462 76.77798673 -25.91941306 69.33063636 -23.1875 61.8828125 C-21.9890862 58.61670685 -20.79059459 55.35062977 -19.59207153 52.08456421 C-18.8413548 50.03830402 -18.0909125 47.99194311 -17.34078979 45.94546509 C-13.27289507 34.848019 -9.17755152 23.76128582 -5.03515625 12.69140625 C-4.452714 11.13231789 -4.452714 11.13231789 -3.85850525 9.54173279 C-3.31958397 8.10483849 -3.31958397 8.10483849 -2.76977539 6.63891602 C-2.45166397 5.78991226 -2.13355255 4.94090851 -1.80580139 4.06617737 C-1 2 -1 2 0 0 Z M26 66 C23.14418313 75.15218432 20.29263224 84.30568366 17.44648075 93.46087837 C16.12469031 97.7122024 14.8014489 101.96306326 13.47485352 106.21289062 C12.19407534 110.31612949 10.91715839 114.42055177 9.64288139 118.52581406 C9.15665736 120.08987843 8.66905626 121.65351541 8.18004036 123.21670914 C7.4940342 125.41043839 6.81299151 127.60565217 6.13305664 129.80126953 C5.74444962 131.04925323 5.35584259 132.29723694 4.95545959 133.58303833 C3.82420807 137.39304968 3.82420807 137.39304968 3 143 C18.51 143 34.02 143 50 143 C48.37886493 134.75613774 48.37886493 134.75613774 46.16821289 126.79101562 C45.81767349 125.68286499 45.46713409 124.57471436 45.10597229 123.4329834 C44.731978 122.26916138 44.3579837 121.10533936 43.97265625 119.90625 C43.37724502 118.03052262 42.78183419 116.15479512 42.18644619 114.27906036 C41.3587009 111.67606257 40.52599896 109.07466067 39.69342041 106.47320557 C38.44129995 102.55719488 37.1961188 98.63897362 35.95034695 94.72093964 C34.97988009 91.66899073 34.00795071 88.61752844 33.03297424 85.5670166 C30.95711479 79.06314364 28.93338758 72.54770689 27 66 C26.67 66 26.34 66 26 66 Z " fill="#000000" transform="translate(150,142)"/>
<path d="M0 0 C11.86582164 9.10938077 16.78838382 24.84485474 18.7975502 39.05606079 C19.87134529 49.29135683 19.43387277 59.7051759 19.37109375 69.98046875 C19.36380184 72.6928686 19.36107485 75.4052681 19.35823059 78.11767578 C19.34897844 84.48500957 19.32445934 90.85218523 19.29418212 97.21945 C19.2570989 105.19444652 19.24088103 113.16946977 19.22460938 121.14453125 C19.19555578 135.33996631 19.13543303 149.53505731 19.078125 163.73046875 C1.588125 163.73046875 -15.901875 163.73046875 -33.921875 163.73046875 C-33.97085938 156.15722656 -34.01984375 148.58398438 -34.0703125 140.78125 C-34.10572596 135.96417989 -34.14170151 131.14712696 -34.1796875 126.33007812 C-34.23983804 118.69558254 -34.29798315 111.0611108 -34.34375 103.42651367 C-34.38080672 97.26670899 -34.42722049 91.10703749 -34.47993851 84.94734764 C-34.49837465 82.6052301 -34.51352171 80.26308413 -34.52521896 77.92092323 C-33.27690648 56.49440779 -33.27690648 56.49440779 -40.921875 37.73046875 C-46.69793385 32.88652522 -53.88328276 33.03592255 -61.06640625 33.3515625 C-68.63103551 34.09499618 -73.83123758 36.6639864 -78.67096329 42.53796577 C-81.14643172 46.87677869 -80.74960306 51.57406432 -80.69482422 56.44897461 C-80.70545395 57.61067169 -80.71608368 58.77236877 -80.72703552 59.9692688 C-80.75505803 63.79505902 -80.74103304 67.61946683 -80.7265625 71.4453125 C-80.73781385 74.10336865 -80.75140219 76.76131002 -80.76809692 79.41932678 C-80.80237817 85.69135812 -80.80638354 91.96302455 -80.79937184 98.23513085 C-80.79223149 106.08069097 -80.8257526 113.92601117 -80.859375 121.77148438 C-80.91913648 135.75796713 -80.9176372 149.74361437 -80.921875 163.73046875 C-98.411875 163.73046875 -115.901875 163.73046875 -133.921875 163.73046875 C-133.921875 107.63046875 -133.921875 51.53046875 -133.921875 -6.26953125 C-117.421875 -6.26953125 -100.921875 -6.26953125 -83.921875 -6.26953125 C-83.261875 -0.98953125 -82.601875 4.29046875 -81.921875 9.73046875 C-79.79239349 9.96202123 -79.79239349 9.96202123 -78.328125 8.19140625 C-77.6990625 7.50304687 -77.07 6.8146875 -76.421875 6.10546875 C-57.31526389 -13.30986677 -22.24284455 -14.69293594 0 0 Z " fill="#000000" transform="translate(425.921875,206.26953125)"/>
</svg>
